<?xml version="1.0" encoding="UTF-8"?>
<!-- Created with Inkscape (http://www.inkscape.org/) -->
<svg width="12.293mm" height="13.123mm" version="1.1" viewBox="0 0 12.293362 13.1233" xmlns="http://www.w3.org/2000/svg" xmlns:cc="http://creativecommons.org/ns#" xmlns:dc="http://purl.org/dc/elements/1.1/" xmlns:rdf="http://www.w3.org/1999/02/22-rdf-syntax-ns#"><metadata><rdf:RDF><cc:Work rdf:about=""><dc:format>image/svg+xml</dc:format><dc:type rdf:resource="http://purl.org/dc/dcmitype/StillImage"/><dc:title/></cc:Work></rdf:RDF></metadata><g transform="translate(-58.752 -127.6)"><g stroke-width=".26458px" aria-label="BORS"><path d="m64.898 140.72c2.9125 0 5.3679-2.1844 5.9944-5.0969 0.1016-0.47413 0.1524-0.94827 0.1524-1.4563 0-0.49106-0.0508-0.9652-0.1524-1.4224-0.6096-2.9295-3.0649-5.1477-5.9944-5.1477-3.3697 0-6.1468 2.9633-6.1468 6.5701s2.7771 6.5532 6.1468 6.5532zm1.8796-6.5363c0-0.6096-0.32173-1.1684-0.79587-1.4732h3.4544c0.77893 0 1.4224 0.6604 1.4224 1.4563 0 0.79587-0.64347 1.4393-1.4224 1.4393h-3.4036c0.44027-0.32174 0.74507-0.84667 0.74507-1.4224zm-6.4008 1.4224c-0.79587 0-1.4393-0.64347-1.4393-1.4393 0-0.8128 0.64347-1.4563 1.4393-1.4563h3.6915c-0.47413 0.3048-0.77893 0.8636-0.77893 1.4732 0 0.57573 0.28787 1.1007 0.74507 1.4224zm4.9615-1.5409c-0.32173 0-0.59267-0.27093-0.59267-0.59266 0-0.33867 0.27093-0.59267 0.59267-0.59267 0.32173 0 0.57573 0.254 0.57573 0.59267 0 0.32173-0.254 0.59266-0.57573 0.59266z" style="font-feature-settings:salt;font-variant-caps:normal;font-variant-ligatures:normal;font-variant-numeric:normal"/></g></g></svg>
