<?xml version="1.0" encoding="UTF-8"?>
<!-- Created with Inkscape (http://www.inkscape.org/) -->
<svg width="47.825mm" height="13.123mm" version="1.1" viewBox="0 0 47.825287 13.123333" xmlns="http://www.w3.org/2000/svg" xmlns:cc="http://creativecommons.org/ns#" xmlns:dc="http://purl.org/dc/elements/1.1/" xmlns:rdf="http://www.w3.org/1999/02/22-rdf-syntax-ns#"><metadata><rdf:RDF><cc:Work rdf:about=""><dc:format>image/svg+xml</dc:format><dc:type rdf:resource="http://purl.org/dc/dcmitype/StillImage"/><dc:title/></cc:Work></rdf:RDF></metadata><g transform="translate(-47.029 -127.6)"><g stroke-width=".26458px" aria-label="BORS"><path d="m54.31 140.52c2.3707 0 4.0301-1.4732 4.0301-3.6745v-0.84667c0-0.3556-0.08467-0.762-0.38947-1.2023-0.16933-0.23707-0.4572-0.47414-0.9144-0.6096 0.4572-0.1524 0.74507-0.38947 0.9144-0.62654 0.3048-0.44026 0.38947-0.8636 0.38947-1.2192v-0.84666c0-2.2013-1.6595-3.6745-4.0301-3.6745h-7.2813v4.8937h2.0997v2.8956h-2.0997v4.9107zm3.1157-7.8063s0.69427 0.0339 0.27093 0.67733c-0.37253 0.54187-0.94827 0.64347-1.6764 0.64347h-6.6209v-1.3208zm-1.4055 1.6087c0.72813 0 1.3039 0.1016 1.6764 0.64347 0.42333 0.64347-0.27093 0.64347-0.27093 0.64347h-8.0264v-1.2869z" stroke-width=".26458px"/><path d="m64.898 140.72c2.9125 0 5.3679-2.1844 5.9944-5.0969 0.1016-0.47413 0.1524-0.94827 0.1524-1.4563 0-0.49106-0.0508-0.9652-0.1524-1.4224-0.6096-2.9295-3.0649-5.1477-5.9944-5.1477-3.3697 0-6.1468 2.9633-6.1468 6.5701s2.7771 6.5532 6.1468 6.5532zm1.8796-6.5363c0-0.6096-0.32173-1.1684-0.79587-1.4732h3.4544c0.77893 0 1.4224 0.6604 1.4224 1.4563 0 0.79587-0.64347 1.4393-1.4224 1.4393h-3.4036c0.44027-0.32174 0.74507-0.84667 0.74507-1.4224zm-6.4008 1.4224c-0.79587 0-1.4393-0.64347-1.4393-1.4393 0-0.8128 0.64347-1.4563 1.4393-1.4563h3.6915c-0.47413 0.3048-0.77893 0.8636-0.77893 1.4732 0 0.57573 0.28787 1.1007 0.74507 1.4224zm4.9615-1.5409c-0.32173 0-0.59267-0.27093-0.59267-0.59266 0-0.33867 0.27093-0.59267 0.59267-0.59267 0.32173 0 0.57573 0.254 0.57573 0.59267 0 0.32173-0.254 0.59266-0.57573 0.59266z" style="font-feature-settings:salt;font-variant-caps:normal;font-variant-ligatures:normal;font-variant-numeric:normal"/><path d="m71.469 140.52h6.5193v-4.9107h-3.8439v-1.1853h3.6745c0.18627 0.0169 0.44027 0.0847 0.6604 0.254 0.32173 0.23707 0.54187 0.62654 0.6096 1.1684 0.01693 0.1524 0.0508 0.47414 0.06773 0.6096 0.18627 1.2361 0.37253 2.4045 1.1345 3.3189 0.47413 0.5588 1.1176 0.88053 1.8796 0.88053 1.3208 0 2.3876-1.0668 2.3876-2.3707 0-1.3208-1.0668-2.3876-2.3876-2.3876-1.2869 0-2.3876 1.0499-2.3876 2.3199-0.16933-0.5588-0.27093-1.1684-0.3556-1.7949-0.01693-0.1524-0.0508-0.47414-0.06773-0.6096-0.08467-0.62654-0.33867-1.0837-0.72813-1.3547l-0.0508-0.0339h1.3885c1.0499 0 1.6087-0.54186 1.9304-0.93133 0.32173-0.42333 0.38947-0.62653 0.38947-0.98213v-1.016c0-2.2013-1.6595-3.6745-4.0301-3.6745h-6.7733v4.8937h2.3876v2.8956h-2.4045zm2.6755-6.3839v-1.4224h7.2305s0.69427-0.0339 0.27093 0.6096c-0.37253 0.54186-0.94827 0.8128-1.6764 0.8128z" stroke-width=".26458px"/><path d="m94.854 136.89v-1.1007c0-0.8128-0.508-1.2531-1.524-1.4901-0.88053-0.18627-2.0489-0.22013-3.6745-0.27093-1.1345-0.0339-2.3029-0.0677-3.1665-0.254-0.38947-0.0847-0.67733-0.2032-0.89747-0.33867-0.13547-0.0677-0.28787-0.28787-0.254-0.49107 0.03387-0.254 0.37253-0.23706 0.37253-0.23706h9.144v-1.27c0-1.9981-1.6256-3.6237-3.6237-3.6237h-2.7093c-1.9981 0-3.6237 1.6256-3.6237 3.6237v1.2531c0.01693 0.6604 0.52493 1.0837 1.5409 1.3039 0.88053 0.2032 2.0659 0.23707 3.2004 0.27093 1.6256 0.0508 2.794 0.0847 3.6407 0.27094 0.37253 0.0847 0.69427 0.16933 0.88053 0.32173 0 0 0.13547 0.1016 0.13547 0.28787 0 0.28786-0.18627 0.4572-0.62653 0.4572h-8.7715v1.2869c0 2.0151 1.6256 3.6237 3.6237 3.6237h2.7093c1.9981 0 3.6237-1.6087 3.6237-3.6237z" stroke-width=".26458px"/></g></g></svg>
