<svg xmlns="http://www.w3.org/2000/svg" width="50" height="50" viewBox="0 0 13.23 13.23"><path fill="#fff" d="M5.79 5.05l-3.8-.01S.81 5.08.62 6.49c-.2 1.42 1.44 1.89 1.44 1.89l9.2-.33s1.23.04 1.3-1.56c.09-1.6-1.27-1.43-2.64-1.43l-4.14-.01"/><path d="M6.62 13.18a6.27 6.27 0 0 0 5.99-5.1 6.85 6.85 0 0 0 0-2.88C12 2.27 9.54.05 6.6.05 3.25.05.48 3.02.48 6.62s2.78 6.56 6.15 6.56zM8.5 6.64c0-.61-.33-1.17-.8-1.47h3.45a1.45 1.45 0 0 1 0 2.9h-3.4c.44-.33.74-.85.74-1.43zM2.1 8.06c-.8 0-1.45-.64-1.45-1.44 0-.81.65-1.45 1.44-1.45h3.7A1.75 1.75 0 0 0 5 6.64c0 .58.3 1.1.75 1.42zm4.95-1.54a.6.6 0 0 1-.59-.6.59.59 0 0 1 .6-.58c.32 0 .57.25.57.59a.59.59 0 0 1-.58.6z"/></svg>
