<?xml version="1.0" standalone="no"?>
<!DOCTYPE svg PUBLIC "-//W3C//DTD SVG 20010904//EN"
 "http://www.w3.org/TR/2001/REC-SVG-20010904/DTD/svg10.dtd">
<svg version="1.0" xmlns="http://www.w3.org/2000/svg"
 width="736.000000pt" height="736.000000pt" viewBox="0 0 736.000000 736.000000"
 preserveAspectRatio="xMidYMid meet">
<metadata>
Created by potrace 1.11, written by Peter Selinger 2001-2013
</metadata>
<g transform="translate(0.000000,736.000000) scale(0.100000,-0.100000)"
fill="#000000" stroke="none">
<path d="M3449 7356 c-2 -2 -39 -7 -82 -11 -43 -3 -88 -8 -100 -10 -12 -3 -38
-6 -57 -9 -64 -8 -214 -37 -295 -58 -44 -11 -87 -21 -95 -23 -36 -7 -326 -108
-337 -117 -7 -6 -13 -8 -13 -4 0 3 -19 -4 -42 -16 -24 -13 -48 -23 -54 -24
-15 -2 -238 -115 -302 -153 -29 -17 -57 -31 -62 -31 -6 0 -10 -4 -10 -8 0 -5
-15 -16 -32 -26 -45 -23 -65 -36 -123 -75 -58 -40 -245 -180 -261 -196 -6 -6
-31 -27 -55 -46 -90 -72 -365 -354 -439 -450 -14 -18 -30 -37 -35 -43 -41 -43
-194 -263 -298 -431 -35 -56 -192 -363 -202 -396 -4 -13 -18 -46 -30 -74 -46
-102 -113 -289 -104 -291 2 0 -2 -8 -10 -17 -7 -10 -11 -17 -7 -17 3 0 1 -12
-5 -27 -39 -100 -111 -423 -134 -603 -9 -73 -18 -153 -22 -199 -7 -86 -12
-575 -5 -586 3 -5 7 -36 8 -70 1 -33 5 -80 8 -105 4 -25 9 -63 12 -85 8 -63
39 -244 48 -280 2 -5 6 -28 10 -50 4 -22 12 -54 17 -71 5 -17 12 -40 14 -50 7
-32 36 -138 41 -154 3 -8 4 -15 3 -15 -1 0 6 -18 16 -40 9 -22 19 -50 21 -61
2 -12 18 -55 34 -95 16 -41 30 -78 30 -82 0 -7 15 -41 68 -157 9 -19 17 -37
17 -40 1 -8 77 -156 120 -235 39 -73 158 -261 240 -381 11 -16 22 -31 25 -34
3 -3 19 -23 35 -45 16 -22 38 -50 49 -61 12 -12 30 -34 41 -50 36 -50 107
-127 240 -259 122 -122 197 -190 290 -262 108 -84 147 -114 185 -138 25 -17
46 -33 48 -37 2 -5 7 -8 12 -8 5 0 36 -18 69 -40 33 -22 64 -40 70 -40 5 0 11
-3 13 -7 6 -15 350 -191 382 -197 6 -1 25 -9 41 -18 50 -25 367 -131 428 -142
14 -2 30 -7 35 -10 8 -5 29 -10 90 -21 25 -5 41 -8 102 -20 14 -3 40 -7 57
-10 18 -2 48 -6 65 -9 229 -37 597 -41 851 -9 29 3 61 7 72 8 11 1 31 5 45 8
14 4 42 9 63 12 56 8 174 33 237 51 74 20 69 19 120 33 39 11 103 31 150 49 8
3 17 6 20 7 127 44 470 201 490 224 3 3 19 13 35 21 47 23 160 93 163 102 2 4
8 8 13 8 9 0 93 56 123 82 11 10 23 18 27 18 4 0 14 6 21 12 7 7 40 35 73 61
56 45 119 97 169 140 137 118 420 429 492 542 10 17 29 41 42 55 12 14 25 33
28 43 3 9 10 17 15 17 5 0 9 4 9 10 0 5 19 38 42 72 82 123 121 192 198 344
14 27 27 51 30 54 3 3 7 14 8 25 2 11 7 22 11 25 10 7 36 73 33 83 -1 4 3 7 8
7 6 0 10 9 10 20 0 11 4 20 10 20 5 0 9 3 8 8 -1 7 6 28 27 77 7 17 37 102 65
190 29 88 55 167 58 175 3 8 6 20 7 25 16 72 39 166 46 190 5 17 11 47 13 67
3 20 12 70 20 110 8 40 18 100 21 133 4 33 9 76 11 95 13 111 16 191 16 430 0
254 -2 307 -18 430 -4 30 -8 69 -10 85 -4 34 -12 80 -18 110 -6 31 -18 104
-17 110 0 2 -5 19 -10 37 -5 18 -11 44 -14 58 -3 14 -7 36 -11 50 -3 14 -7 34
-9 45 -3 21 -16 67 -60 209 -15 49 -28 94 -30 100 -1 6 -5 20 -10 31 -4 11
-31 81 -60 155 -29 74 -77 185 -106 245 -77 161 -221 414 -241 423 -5 2 -8 10
-8 17 0 8 -6 20 -13 27 -7 7 -28 36 -47 63 -43 64 -153 208 -199 261 -20 22
-63 71 -96 109 -69 78 -57 66 -167 170 -107 102 -162 151 -218 194 -25 19 -52
41 -60 48 -46 41 -275 198 -325 223 -17 8 -32 18 -35 21 -15 19 -299 162 -425
214 -147 61 -382 137 -493 160 -9 2 -48 10 -87 19 -84 18 -173 33 -255 41 -19
2 -53 6 -75 10 -41 7 -550 17 -556 11z m-249 -2866 c-1 -3 -23 -23 -51 -44
-107 -85 -204 -202 -260 -316 -18 -36 -34 -67 -34 -70 -1 -3 -5 -12 -8 -20
-10 -24 -38 -115 -42 -136 -2 -10 -4 -19 -5 -19 -2 0 -7 -31 -14 -95 -16 -138
-1 -324 34 -405 5 -11 14 -38 21 -59 14 -46 56 -127 108 -206 37 -57 177 -204
221 -233 23 -15 -54 -16 -1036 -16 -1133 -1 -1130 -1 -1271 49 -88 31 -208
107 -284 182 -38 36 -69 69 -69 73 0 3 -11 18 -25 33 -14 15 -28 36 -31 47 -4
11 -10 22 -13 25 -10 7 -69 145 -77 177 -33 144 -36 321 -7 407 4 11 7 26 8
31 1 23 38 118 61 157 13 24 27 51 30 61 4 9 10 17 15 17 5 0 9 6 9 14 0 21
158 177 220 218 108 70 262 122 375 127 33 1 61 3 62 4 4 5 2063 1 2063 -3z
m3135 -4 c22 -3 65 -14 95 -22 30 -9 60 -17 65 -18 20 -4 157 -77 172 -91 8
-8 18 -15 23 -15 12 0 160 -145 160 -157 0 -5 8 -18 19 -27 16 -15 91 -157
111 -211 48 -128 56 -319 20 -457 -23 -90 -58 -179 -74 -190 -6 -4 -7 -8 -3
-8 14 0 -72 -117 -130 -178 -105 -107 -240 -185 -378 -218 -5 -1 -23 -6 -40
-10 -16 -5 -487 -10 -1045 -11 l-1015 -3 35 27 c42 33 148 139 173 173 108
152 181 310 192 413 2 23 4 42 5 42 11 0 16 231 6 280 -3 17 -8 39 -10 50 -8
40 -27 111 -38 140 -20 54 -91 200 -105 213 -7 8 -18 23 -24 35 -25 46 -149
172 -211 214 -21 14 -38 28 -38 32 0 8 1985 6 2035 -3z m-2310 -104 c48 -16
85 -35 85 -44 0 -4 5 -8 10 -8 16 0 68 -62 89 -105 33 -71 40 -105 37 -174 -6
-126 -80 -236 -196 -290 -111 -51 -254 -23 -347 67 -26 26 -55 61 -64 77 -38
69 -52 159 -36 236 6 31 41 109 49 109 4 0 8 5 8 10 0 6 19 28 42 50 39 35 61
48 137 77 30 11 146 8 186 -5z"/>
</g>
</svg>
