<svg xmlns="http://www.w3.org/2000/svg" width="50" height="50" viewBox="0 0 13.23 13.229"><path d="M5.785 5.05l-3.802-.01S.823 5.081.626 6.493C.43 7.905 2.074 8.377 2.074 8.377l9.188-.33s1.239.042 1.317-1.554c.08-1.596-1.277-1.432-2.654-1.432-1.376 0-4.14-.012-4.14-.012" fill="#fff" fill-rule="evenodd"/><path style="font-variant-ligatures:normal;font-variant-caps:normal;font-variant-numeric:normal;font-feature-settings:salt" d="M6.615 13.176c2.912 0 5.368-2.184 5.994-5.097a6.853 6.853 0 0 0 0-2.878C12 2.27 9.544.053 6.615.053 3.245.053.468 3.016.468 6.623s2.777 6.553 6.147 6.553zm1.88-6.536c0-.61-.322-1.168-.796-1.473h3.454c.779 0 1.422.66 1.422 1.456 0 .796-.643 1.44-1.422 1.44H7.749c.44-.322.745-.847.745-1.423zM2.093 8.062c-.796 0-1.44-.643-1.44-1.439 0-.813.644-1.456 1.44-1.456h3.691c-.474.305-.779.863-.779 1.473 0 .576.288 1.1.745 1.422zm4.961-1.54a.6.6 0 0 1-.593-.593c0-.339.271-.593.593-.593.322 0 .576.254.576.593a.586.586 0 0 1-.576.593z" aria-label="BORS" stroke-width=".265"/></svg>